<!--?xml version="1.0" encoding="utf-8"?-->
<!-- Generator: Adobe Illustrator 18.1.1, SVG Export Plug-In . SVG Version: 6.00 Build 0)  -->

<svg version="1.1" id="_x31_0" xmlns="http://www.w3.org/2000/svg" xmlns:xlink="http://www.w3.org/1999/xlink" x="0px" y="0px" viewBox="0 0 512 512" style="width: 256px; height: 256px; opacity: 1;" xml:space="preserve">
<style type="text/css">
	.st0{fill:#374149;}
</style>
<g>
	<path class="st0" d="M495.88,494.558c-3.922-29.199-9.199-65.117-12.559-78.637c-0.402-1.602-0.882-3.121-1.281-4.48
		c-0.238-0.961-0.558-1.84-0.801-2.641c-0.641-1.68-1.199-3.121-1.758-4.402c-0.242-0.641-0.562-1.199-0.801-1.758
		c-0.161-0.242-0.321-0.562-0.481-0.801c-0.242-0.398-0.398-0.801-0.641-1.122c-0.48-0.718-0.961-1.437-1.359-1.918
		c-0.242-0.32-0.562-0.641-0.801-0.879c-1.68-1.762-3.121-2.164-4.238-2.164c-1.042,0-1.762,0.485-1.762,0.485
		s-83.199-41.442-105.84-51.043c-1.039-2-2.16-3.84-3.441-5.519v-0.078c-1.278-1.762-2.719-3.442-4.238-4.961
		c-6.961-7.282-15.52-12.321-21.922-15.442c-5.359-2.558-9.199-3.758-9.199-3.758s-0.32-24.883-0.878-39.922
		c6.64-7.359,10.961-13.277,12.238-15.038l0.64-0.962l0.562-1.038c0.238-0.481,4.398-9.442,7.84-21.52
		c12.558-3.039,22.641-15.922,28.16-36.242c2.798-10.476,2.161-20.476-1.683-28.476c-0.078-4.321-0.398-7.524-0.718-8.883
		c0,0,7.601-42.558,5.199-71.199c-2.559-28.718-55.84-49.442-55.84-49.442s-2.238-6-7.278-13.519
		c-1.043-1.598-2.242-3.199-3.519-4.879c-1.043-1.281-2.242-2.64-3.442-4c-0.558-0.64-1.199-1.281-1.84-2
		c-0.32-0.32-0.718-0.64-1.039-0.961C293.802,8.16,280.119,0,261.321,0c-1.363,0-2.801,0-4.242,0.078
		c-8,0.48-15.52,1.602-22.559,3.281c-33.839,7.84-57.519,28.242-75.121,56.883c-21.359,34.718-24,75.836-24,75.836
		c0.16,3.602,8,16.402,11.359,21.843c-1.438,0.958-2.801,2.238-4,3.68c-7.839,9.519-5.839,24.718-4.64,30.797
		c0.16,0.883,0.32,1.762,0.48,2.722c2.16,11.438,6,31.68,25.359,38.719c4.723,13.679,7.442,22.801,7.524,22.878l0.637,2.161
		l1.363,1.839c1.438,1.922,6.558,8.481,14,16.563c-0.321,13.117-0.242,38.16-0.242,38.16s-3.84,1.199-9.199,3.758
		c-6.402,3.121-15.039,8.16-21.922,15.442c-1.52,1.519-2.958,3.199-4.238,4.961v0.078c-1.282,1.679-2.398,3.519-3.442,5.519
		c-22.637,9.602-105.84,51.043-105.84,51.043s-0.718-0.485-1.84-0.485c-1.039,0-2.48,0.402-4.16,2.164
		c-0.238,0.238-0.558,0.559-0.797,0.879c-0.481,0.481-0.882,1.199-1.363,1.918c-0.238,0.321-0.481,0.723-0.637,1.122
		c-0.164,0.238-0.32,0.558-0.481,0.801c-0.242,0.558-0.562,1.117-0.801,1.758c-0.64,1.282-1.121,2.722-1.762,4.402
		c-0.238,0.801-0.558,1.68-0.801,2.641c-0.476,1.359-0.878,2.878-1.277,4.48c-3.442,13.52-8.641,49.438-12.562,78.637
		C14.841,503.758,22.2,512,31.72,512h448.559C489.802,512,497.161,503.758,495.88,494.558z M183.56,253.121
		c0,0-3.602-12.082-9.922-29.839C154.92,220.481,152.92,202,150.52,190c-1.679-8.481-1.038-16,1.598-19.84
		c1.042-1.602,2.562-2.558,4.32-2.558c4.801,0,10.082,17.519,12,24.641c0.402,1.679,0.641,2.797,0.641,3.039v-0.481
		c0.082,0.32,0.16,0.481,0.16,0.481l4-42.082l13.762-14.558l8.637-31.52c0,0,33.282-26.801,59.602-27.121h1.039
		c25.84,0,48.801,12.481,48.801,12.481s10.48,35.121,11.679,36.878c1.199,1.762,19.442,21.442,19.442,21.442l0.238,22.481l0.082,22
		c0-0.082,0.078-0.402,0.161-0.723v0.723c0,0,4.48-23.762,12.878-24.801c0.321-0.082,0.719-0.082,1.039-0.082
		c7.922,0,14.722,11.359,10.481,27.043c-1.442,5.598-3.52,10.878-6.078,15.359c-2.562,4.481-5.519,8.078-8.961,10.16
		c-0.082,0.078-0.238,0.16-0.321,0.238c-1.199,0.722-2.48,1.199-3.839,1.519c-0.242,0-0.481,0.082-0.801,0.082
		c-0.559,0.16-1.199,0.238-1.84,0.238c-1.199,0-2.481-0.16-3.68-0.558c-0.078-0.082-0.16-0.082-0.16-0.082c-0.078,0-0.16,0-0.16,0
		c-2.719,13.121-7.52,24.562-8.961,27.762c-0.16,0.238-0.16,0.481-0.238,0.641c-0.16,0.16-0.16,0.32-0.16,0.32s0,0-0.078,0
		c0,0,0,0.078-0.082,0.161c-2.16,2.961-37.918,51.277-71.762,51.277h-1.117c-22.641-0.718-49.039-27.679-61.68-42.238
		C186.36,256.879,183.56,253.121,183.56,253.121z M304.52,316.558v4.801l-48.562,22.481l-48.476-22.398v-24.402
		c13.519,11.121,29.359,20.562,44.957,21.039c16.32,0,30.882-6.879,43.922-16.238c0.641-0.481,1.278-0.961,1.918-1.442
		c0.242-0.238,0.562-0.477,0.882-0.718c1.68-1.199,3.359-2.481,5.039-3.84C304.439,306.641,304.52,316.398,304.52,316.558z
		 M217.001,399.121l-55.68-58.961c8.238-8.801,19.68-14.16,25.118-16.32l53.602,29.442l14.32,7.918l-36,36.641L217.001,399.121z
		 M277.482,504.398H234.52V452.32l12.641-29.602h17.68l12.641,29.602V504.398z M264.841,415.519h-17.68L234.52,386h31.039
		l11.922,0.078L264.841,415.519z M297.08,396.879l-2.16,2.242l-29.52-30l-7.762-8l67.922-37.281
		c5.442,2.16,16.879,7.519,25.122,16.32L297.08,396.879z" style="fill: rgb(88, 99, 101);"></path>
</g>
</svg>
